<?xml version="1.0" encoding="UTF-8"?>
<svg id="Camada_2" data-name="Camada 2" xmlns="http://www.w3.org/2000/svg" viewBox="0 0 3361.2 2133.86">
  <defs>
    <style>
      .cls-1 {
        fill: #e5e1e6;
      }

      .cls-2 {
        fill: #1a1a1a;
      }
    </style>
  </defs>
  <g id="Camada_1-2" data-name="Camada 1">
    <rect class="cls-1" width="3361.2" height="2133.86"/>
    <g>
      <path class="cls-2" d="m1476.37,1235.06c-32.81,0-63.63-4.4-92.45-13.2-25.63-7.83-48.2-18.57-67.71-32.23-3.99-2.8-4.93-8.32-2.06-12.26l37.82-51.96c2.73-3.75,7.9-4.65,11.8-2.13,18.61,12.01,36.58,21.19,53.89,27.55,19.44,7.14,38.78,10.71,58,10.71,21.55,0,38.78-3.68,51.68-11.06,12.89-7.37,19.34-17.01,19.34-28.91,0-9.52-3.64-17.13-10.9-22.84-7.27-5.71-18.87-9.75-34.8-12.14l-70.31-10.71c-36.1-5.71-63.63-17.72-82.61-36.05-18.98-18.31-28.47-42.47-28.47-72.46,0-24.27,6.21-45.21,18.63-62.82,12.41-17.6,30.11-31.17,53.08-40.69,22.96-9.52,49.68-14.28,80.15-14.28,27.18,0,53.54,3.81,79.1,11.42,22.65,6.76,44.11,16.69,64.36,29.8,4.22,2.73,5.34,8.42,2.37,12.47l-36.28,49.68c-2.65,3.63-7.66,4.72-11.51,2.39-17.75-10.71-34.84-18.6-51.28-23.67-18.52-5.71-36.91-8.57-55.19-8.57s-31.29,3.33-41.83,9.99c-10.55,6.67-15.82,15.47-15.82,26.41,0,9.99,3.75,17.85,11.25,23.56,7.49,5.71,20.15,9.99,37.97,12.85l70.31,9.99c36.56,5.24,64.44,17.13,83.66,35.69,19.21,18.56,28.83,42.12,28.83,70.68,0,23.8-7.03,44.86-21.09,63.17-14.06,18.32-33.17,32.84-57.3,43.55-24.15,10.71-51.68,16.06-82.61,16.06Z"/>
      <path class="cls-2" d="m1853.91,1235.06c-36.56,0-69.6-8.57-99.13-25.7-29.53-17.13-52.97-40.34-70.31-69.6-17.35-29.27-26.01-61.75-26.01-97.44s8.67-68.89,26.01-98.16c17.33-29.27,40.78-52.35,70.31-69.24,29.53-16.89,62.57-25.34,99.13-25.34s69.6,8.45,99.13,25.34c29.53,16.9,52.96,39.98,70.31,69.24,17.33,29.27,26.01,61.99,26.01,98.16s-8.56,68.17-25.66,97.44c-17.11,29.27-40.43,52.47-69.95,69.6-29.53,17.13-62.81,25.7-99.84,25.7Zm0-84.95c19.21,0,36.56-4.88,52.03-14.64,15.47-9.75,27.65-22.72,36.56-38.9,8.9-16.17,13.36-34.5,13.36-54.97s-4.57-38.07-13.71-54.25c-9.14-16.17-21.33-29.02-36.56-38.55-15.24-9.52-32.23-14.28-50.97-14.28s-36.56,4.76-52.03,14.28c-15.47,9.53-27.66,22.37-36.56,38.55-8.91,16.19-13.36,34.27-13.36,54.25s4.45,38.8,13.36,54.97c8.9,16.19,20.97,29.16,36.21,38.9,15.23,9.76,32.45,14.64,51.68,14.64Z"/>
      <path class="cls-2" d="m2203.01,944.62l41.66-220.54c1.12-5.95-4.03-11.2-10-10.18l-78.08,13.31c-3.56.61-6.38,3.36-7.07,6.9l-40.44,207.23c-1.05,5.37,3.06,10.36,8.53,10.36h76.85c4.18,0,7.76-2.97,8.54-7.08Z"/>
      <path class="cls-2" d="m2098.59,995.16l-37.34,191.39c-4.18,21.44,12.23,41.37,34.08,41.37h46.85c4.25,0,7.89-3.02,8.68-7.19l41.98-222.24c1.03-5.44-3.14-10.47-8.68-10.47h-76.9c-4.23,0-7.86,2.99-8.67,7.14Z"/>
      <path class="cls-2" d="m2366.22,713.9l-78.11,13.32c-3.56.61-6.37,3.35-7.06,6.89l-40.44,207.26c-1.05,5.36,3.06,10.34,8.51,10.34h76.88c4.17,0,7.75-2.97,8.52-7.07l41.67-220.58c1.12-5.94-4.02-11.18-9.98-10.16Z"/>
      <path class="cls-2" d="m2273.83,1227.92c4.17,0,7.74-2.96,8.52-7.06l30.79-162.96,11.26-59.61c1.01-5.34-3.08-10.28-8.52-10.28h-77.23c-4.15,0-7.71,2.94-8.51,7.01l-37.37,191.52c-4.18,21.44,12.24,41.38,34.08,41.38h46.98Z"/>
      <path class="cls-2" d="m2918.25,874.31c-20.63,0-39.26,4.28-55.89,12.85-10.12,5.21-19.22,11.85-27.35,19.87l7.33-38.8c1.12-5.95-4.03-11.19-9.99-10.17l-79.02,13.47c-3.56.61-6.37,3.35-7.06,6.9l-60.12,308.12c-4.18,21.44,12.24,41.37,34.08,41.37h46.85c4.25,0,7.89-3.02,8.68-7.19l36.4-192.69c2.92-16.01,27.92-46.01,45.64-55.58,16.09-8.69,32.57-14.63,51.32-14.63,6.36,0,12.56.49,18.57,1.46,4.16.67,8.18-1.73,9.55-5.72,5.12-14.98,16.71-49.59,19.74-64.57.85-4.2-1.45-8.46-5.49-9.86-8.21-2.85-19.29-4.46-33.23-4.83Z"/>
      <path class="cls-2" d="m2675.14,1001.77c1.98-15.32,2.07-30.89-.6-46.11-5.1-29.13-17.85-52.71-38.23-70.74-27.19-24.03-65.86-36.05-116.01-36.05-26.25,0-52.5,3.34-78.74,10-6.04,1.53-12.15,3.25-18.34,5.12-3.1.93-5.42,3.54-6.02,6.72l-5.29,27.98c-4.68,24.77,18.21,45.87,42.52,39.2l.49-.13c18.28-5,34.91-7.5,49.92-7.5,25.31,0,44.52,5.48,57.65,16.42,13.12,10.95,19.69,27.13,19.69,48.54v15.17c0,5.83-5.62,9.96-11.2,8.27-24.85-7.54-51.12-11.3-78.79-11.3-46.88,0-83.44,9.88-109.68,29.62-26.26,19.75-39.37,47.47-39.37,83.16,0,22.38,5.63,42.12,16.87,59.25,11.25,17.13,26.95,30.58,47.1,40.33,20.15,9.75,43.12,14.64,68.9,14.64,21.09,0,40.31-2.62,57.65-7.85,8.05-2.43,15.82-5.6,23.37-9.36,6.27,6.59,15.1,10.79,25.1,10.79h46.85c4.25,0,7.89-3.02,8.68-7.19l27.59-146.05c.98-5.19,1.81-10.42,2.49-15.66l7.4-57.26Zm-173.81,162.62c-20.16,0-36.33-4.16-48.51-12.49-12.19-8.32-18.28-19.63-18.28-33.91s6.21-26.17,18.63-34.27c12.41-8.09,29.64-12.14,51.68-12.14,14.52,0,28.12,1.07,40.78,3.21.08.01.16.03.24.04,12.8,2.19,21.12,14.77,18.63,27.52l-8.73,44.74c-1.07,5.48-5.03,10.03-10.4,11.56-.03,0-.06.02-.09.03-13.36,3.81-28.01,5.71-43.94,5.71Z"/>
      <g>
        <path class="cls-2" d="m1447.91,1469.2v-142.56h61.91c9.37,0,17.48,1.7,24.34,5.09,6.85,3.4,12.18,8.18,15.99,14.36,3.8,6.18,5.7,13.41,5.7,21.69s-1.91,15.51-5.7,21.69c-3.8,6.18-9.17,10.99-16.09,14.46-6.92,3.46-15.01,5.19-24.24,5.19h-46.23v60.08h-15.68Zm15.68-73.73h45.01c9.64,0,17.31-2.48,23.01-7.44,5.7-4.95,8.55-11.64,8.55-20.06s-2.85-15.07-8.55-19.96c-5.7-4.89-13.37-7.33-23.01-7.33h-45.01v54.79Z"/>
        <path class="cls-2" d="m1620.41,1469.2v-142.56h61.1c9.37,0,17.51,1.7,24.44,5.09,6.92,3.4,12.32,8.14,16.19,14.26,3.87,6.11,5.81,13.31,5.81,21.59,0,9.37-2.75,17.41-8.25,24.13-5.5,6.72-12.87,11.44-22.1,14.16l31.97,63.34h-17.31l-30.55-61.3h-45.62v61.3h-15.69Zm15.69-74.54h44.39c9.64,0,17.34-2.44,23.12-7.33,5.77-4.89,8.66-11.47,8.66-19.76s-2.89-14.66-8.66-19.55c-5.78-4.89-13.48-7.33-23.12-7.33h-44.39v53.97Z"/>
        <path class="cls-2" d="m1859.3,1471.44c-10.32,0-19.92-1.87-28.81-5.6-8.9-3.73-16.7-8.96-23.42-15.68-6.72-6.72-11.95-14.53-15.69-23.42-3.74-8.89-5.6-18.5-5.6-28.82s1.86-19.92,5.6-28.82c3.74-8.89,8.96-16.7,15.69-23.42,6.72-6.72,14.53-11.95,23.42-15.68,8.89-3.73,18.49-5.6,28.81-5.6s19.72,1.87,28.62,5.6c8.89,3.74,16.7,8.96,23.42,15.68,6.72,6.72,11.95,14.53,15.68,23.42,3.74,8.9,5.6,18.5,5.6,28.82s-1.86,19.93-5.6,28.82c-3.74,8.9-8.96,16.7-15.68,23.42-6.72,6.72-14.53,11.95-23.42,15.68-8.9,3.74-18.43,5.6-28.62,5.6Zm0-14.46c8.15,0,15.69-1.49,22.61-4.48,6.92-2.98,13-7.16,18.22-12.52,5.23-5.36,9.3-11.64,12.22-18.84,2.92-7.2,4.38-14.94,4.38-23.22s-1.46-16.19-4.38-23.32c-2.92-7.13-6.99-13.37-12.22-18.74-5.22-5.36-11.3-9.54-18.22-12.52-6.92-2.98-14.46-4.48-22.61-4.48s-15.71,1.5-22.71,4.48c-6.99,2.99-13.11,7.16-18.33,12.52-5.23,5.36-9.3,11.61-12.22,18.74-2.92,7.13-4.38,14.9-4.38,23.32s1.46,16.02,4.38,23.22c2.92,7.2,6.99,13.47,12.22,18.84,5.22,5.36,11.34,9.54,18.33,12.52,6.99,2.99,14.56,4.48,22.71,4.48Z"/>
        <path class="cls-2" d="m2032.42,1471.44c-12.22,0-22.85-3.19-31.88-9.57-9.03-6.38-15.65-15.34-19.86-26.88l14.26-5.91c3.67,9.37,8.66,16.36,14.97,20.98,6.32,4.62,13.89,6.92,22.71,6.92,11.68,0,20.98-3.77,27.9-11.31,6.92-7.53,10.38-17.68,10.38-30.45v-88.59h15.69v88.8c0,11.4-2.21,21.32-6.62,29.73-4.41,8.42-10.66,14.9-18.74,19.45-8.08,4.55-17.68,6.82-28.81,6.82Z"/>
        <path class="cls-2" d="m2155.84,1469.2v-142.56h102.04v13.85h-86.35v49.9h56.42v13.64h-56.42v51.32h87.17v13.85h-102.86Z"/>
        <path class="cls-2" d="m2361.33,1469.2v-128.51h-51.53v-14.05h118.74v14.05h-51.52v128.51h-15.68Z"/>
        <path class="cls-2" d="m2545.04,1471.44c-10.32,0-19.93-1.87-28.82-5.6-8.9-3.73-16.7-8.96-23.42-15.68-6.72-6.72-11.95-14.53-15.68-23.42-3.74-8.89-5.6-18.5-5.6-28.82s1.86-19.92,5.6-28.82c3.73-8.89,8.96-16.7,15.68-23.42,6.72-6.72,14.53-11.95,23.42-15.68,8.89-3.73,18.5-5.6,28.82-5.6s19.72,1.87,28.61,5.6c8.89,3.74,16.7,8.96,23.42,15.68,6.72,6.72,11.95,14.53,15.68,23.42,3.74,8.9,5.6,18.5,5.6,28.82s-1.86,19.93-5.6,28.82c-3.74,8.9-8.96,16.7-15.68,23.42-6.72,6.72-14.53,11.95-23.42,15.68-8.9,3.74-18.43,5.6-28.61,5.6Zm0-14.46c8.14,0,15.68-1.49,22.6-4.48,6.92-2.98,13-7.16,18.23-12.52,5.22-5.36,9.3-11.64,12.22-18.84,2.92-7.2,4.38-14.94,4.38-23.22s-1.46-16.19-4.38-23.32c-2.92-7.13-6.99-13.37-12.22-18.74-5.23-5.36-11.31-9.54-18.23-12.52-6.92-2.98-14.46-4.48-22.6-4.48s-15.72,1.5-22.71,4.48c-6.99,2.99-13.1,7.16-18.33,12.52-5.23,5.36-9.3,11.61-12.22,18.74-2.93,7.13-4.38,14.9-4.38,23.32s1.46,16.02,4.38,23.22c2.92,7.2,6.99,13.47,12.22,18.84,5.23,5.36,11.34,9.54,18.33,12.52,6.99,2.99,14.56,4.48,22.71,4.48Z"/>
        <path class="cls-2" d="m2729.96,1471.24c-11.27,0-22.07-2.27-32.39-6.82-10.32-4.55-19.42-11.1-27.29-19.65l10.39-10.8c7.33,7.88,15.17,13.79,23.52,17.72,8.35,3.94,17.14,5.9,26.37,5.9,7.46,0,14.09-1.19,19.86-3.56,5.78-2.37,10.29-5.7,13.55-9.98,3.26-4.27,4.89-9.13,4.89-14.56,0-7.33-2.55-12.97-7.64-16.91-5.09-3.94-13.48-6.85-25.15-8.76l-20.57-3.26c-13.71-2.31-23.83-6.38-30.35-12.22s-9.77-13.78-9.77-23.83c0-7.87,2.1-14.8,6.32-20.78,4.21-5.97,10.08-10.62,17.61-13.95,7.54-3.33,16.26-4.99,26.17-4.99s19.92,1.63,29.64,4.89c9.7,3.26,18.56,7.94,26.58,14.05l-8.96,12.22c-15.61-11.81-31.57-17.72-47.86-17.72-6.79,0-12.77,1.05-17.92,3.16-5.16,2.11-9.17,5.03-12.01,8.76-2.86,3.74-4.28,8.12-4.28,13.14,0,6.65,2.24,11.75,6.72,15.27,4.48,3.53,11.88,6.11,22.2,7.74l20.37,3.26c15.61,2.58,26.95,6.96,34.01,13.14,7.06,6.18,10.59,14.84,10.59,25.97,0,8.28-2.31,15.65-6.92,22.1-4.62,6.45-11.04,11.48-19.25,15.07-8.22,3.6-17.69,5.4-28.41,5.4Z"/>
      </g>
      <path class="cls-2" d="m1211.53,1031.84c-2.96-11.44-11.35-20.72-22.42-24.81l-61.48-22.78,22.16-117.3c2.19-11.62-1.44-23.59-9.73-32.03-8.28-8.42-20.18-12.26-31.81-10.29l-64.59,11.01-39.39-112.61c-3.91-11.16-13.05-19.71-24.44-22.86-11.38-3.15-23.6-.53-32.69,7.01l-50.47,41.84-90.5-77.88c-8.95-7.7-21.12-10.54-32.56-7.59-11.44,2.95-20.73,11.33-24.83,22.41l-22.79,61.47-117.31-22.19c-11.61-2.2-23.57,1.44-32,9.71-8.43,8.28-12.29,20.17-10.32,31.82l11,64.63-112.68,39.43c-11.16,3.91-19.71,13.05-22.86,24.44-3.16,11.38-.54,23.6,7.01,32.69l41.84,50.46-77.87,90.51c-7.7,8.96-10.54,21.13-7.58,32.58,2.95,11.45,11.33,20.73,22.41,24.84l61.48,22.78-22.19,117.3c-2.19,11.6,1.44,23.56,9.71,31.99,6.85,6.98,16.18,10.83,25.81,10.83,2.01,0,4.03-.17,6.04-.51l64.62-11.01,39.44,112.67c3.91,11.15,13.05,19.7,24.44,22.86,3.18.88,6.43,1.32,9.65,1.32,8.31,0,16.49-2.87,23.05-8.3l50.48-41.85,90.49,77.85c6.63,5.7,15.02,8.73,23.56,8.73,3.02,0,6.05-.38,9.04-1.15,11.43-2.96,20.7-11.34,24.79-22.41l22.78-61.47,117.32,22.18c2.23.42,4.47.63,6.7.63,9.37,0,18.49-3.66,25.3-10.35,8.43-8.28,12.28-20.19,10.3-31.84l-11.01-64.62,112.68-39.46c11.14-3.9,19.68-13.03,22.84-24.41,3.17-11.39.56-23.62-6.98-32.73l-41.85-50.46,77.85-90.51h0c7.71-8.96,10.54-21.15,7.58-32.59Zm-100.56-191.3c6.53-1.12,12.95.96,17.59,5.69,4.66,4.74,6.62,11.2,5.39,17.73l-21.65,114.6-70.03-25.95,9.24-5.33c15.06-8.69,21.81-26.9,16.06-43.3l-18.5-52.89,61.9-10.55Zm-202.94,189.36l59.6-20.48c7.83-2.69,16.65-.21,21.94,6.17l35,42.2c3.58,4.32.51,10.85-5.1,10.85h-104.99l-1.54,15.98,61.98,12.1c.53.1,1.05.23,1.56.38,7.39,2.09,13.08,8.32,14.39,15.95l9.21,54.04c.94,5.53-4.99,9.65-9.84,6.85l-90.97-52.52-9.33,13.07,47.68,41.51c6.24,5.44,8.51,14.32,5.64,22.09l-19.06,51.41c-1.95,5.26-9.15,5.87-11.95,1.01l-52.5-90.93-14.61,6.65,20.52,59.73c2.69,7.85.21,16.68-6.17,21.97l-42.2,35c-4.32,3.58-10.86.51-10.85-5.1v-105.02s-15.97-1.55-15.97-1.55l-12.11,62.01c-.56,2.84-1.73,5.46-3.35,7.74-.12.18-.24.36-.37.53-.05.07-.11.14-.17.21-.25.32-.51.65-.78.95-.04.05-.09.09-.13.14-2.97,3.3-7,5.61-11.52,6.38l-54.04,9.2c-5.53.94-9.66-4.99-6.85-9.84l52.53-90.97-13.07-9.33-41.54,47.69c-5.43,6.24-14.31,8.51-22.08,5.63l-51.39-19.05c-5.26-1.95-5.87-9.15-1.01-11.95l90.97-52.5-6.65-14.61-59.8,20.52c-.11.04-.23.07-.34.1-3.33,1.07-6.82,1.24-10.14.56-4.41-.89-8.51-3.25-11.48-6.83l-34.99-42.22c-3.58-4.32-.51-10.85,5.1-10.85h104.97s1.55-15.97,1.55-15.97l-61.97-12.1c-8.14-1.6-14.54-8.16-15.93-16.32l-9.21-54.05c-.94-5.53,4.99-9.66,9.85-6.85l90.95,52.54,9.33-13.06-47.67-41.54c-6.25-5.43-8.51-14.31-5.64-22.08l19.07-51.41c1.95-5.26,9.15-5.87,11.95-1.01l52.5,91.01,14.61-6.65-20.53-59.83c-2.7-7.83-.22-16.64,6.17-21.93l42.2-34.97c4.32-3.58,10.85-.51,10.85,5.1l-.03,104.87,15.98,1.55,12.08-61.9c1.58-8.14,8.14-14.54,16.32-15.93l54.11-9.22c5.53-.94,9.66,4.99,6.85,9.84l-52.46,90.82,13.07,9.33,41.4-47.55c5.43-6.24,14.31-8.51,22.08-5.63l51.5,19.08c5.26,1.95,5.87,9.15,1.01,11.95l-90.86,52.43,6.65,14.61Zm114.58-84.57l-77.28-28.63c-.9-.33-1.81-.61-2.72-.87-.22-.06-.44-.12-.66-.18-.89-.23-1.79-.44-2.69-.6-.15-.03-.3-.04-.45-.07-.79-.13-1.59-.23-2.38-.31-.23-.02-.46-.05-.68-.07-.89-.07-1.78-.11-2.66-.12-.07,0-.14,0-.21,0-.21,0-.42.02-.64.02-.46,0-.91.02-1.37.05-.32.02-.63.04-.95.07-.45.04-.89.08-1.34.14-.3.04-.61.07-.91.11-.51.07-1.01.16-1.52.26-.23.04-.46.08-.69.12-.71.15-1.43.32-2.13.51-.22.06-.45.13-.67.2-.5.14-1,.3-1.49.46-.27.09-.54.19-.8.29-.45.16-.9.33-1.34.52-.26.11-.53.22-.79.33-.46.2-.92.42-1.38.64-.22.11-.45.21-.67.32-.67.34-1.33.7-1.98,1.09l29.16-50.48,89.58-15.27,19.4,55.47c3.19,9.09-.56,19.19-8.9,24l-20.83,12.02Zm-77.38-111.68l-12.04,20.84-81.2,13.84c-10.93,1.85-20.26,8.68-25.53,18.06l.02-58.21h0s70-58.04,70-58.04l44.46,38.26c7.31,6.29,9.11,16.91,4.29,25.25Zm-134.88-13.06l-63.35,52.5c-8.57,7.09-13.25,17.71-13.08,28.49l-29.15-50.53h0s0,0,0,0l31.6-85.23,57.64,10.9c9.48,1.8,16.36,10.09,16.34,19.73v24.15Zm-151.97,109.14c-3.86,10.43-2.59,21.96,2.95,31.22l-50.54-29.2-15.25-89.62,55.39-19.38c9.1-3.19,19.2.56,24.02,8.93l12.06,20.87-28.62,77.18Zm-48.39,93.34c1.86,10.94,8.71,20.29,18.13,25.55h-58.33s-58.02-70-58.02-70l38.26-44.47c3.93-4.56,9.55-6.97,15.25-6.97,3.43,0,6.88.87,10.02,2.68l20.87,12.06,13.82,81.15Zm4.75,105.05c7.1,8.56,17.7,13.18,28.54,13.06l-50.54,29.17h0s0,0,0,0l-85.25-31.59,10.91-57.66c1.78-9.47,10.07-16.35,19.72-16.35h24.11l52.53,63.38Zm56.66,88.59c.65.24,1.31.46,1.97.66,2.12.65,4.28,1.08,6.44,1.32,3.88.44,7.78.25,11.55-.54.02,0,.04,0,.06-.01.37-.08.74-.18,1.12-.27.28-.07.56-.13.84-.2.06-.02.13-.04.19-.06,3.17-.87,6.22-2.16,9.05-3.86l-12.94,22.41-16.24,28.13-89.63,15.27-19.39-55.38c-3.19-9.1.56-19.2,8.92-24.02l20.89-12.06,77.16,28.6Zm.16,83.09l12.06-20.87,81.12-13.82c10.96-1.86,20.32-8.73,25.58-18.17v58.37s-69.98,58.02-69.98,58.02l-44.49-38.28c-7.31-6.28-9.11-16.89-4.28-25.25Zm134.88,13.08h0s63.36-52.55,63.36-52.55c8.55-7.09,13.22-17.7,13.06-28.5l29.16,50.52-31.59,85.25-57.64-10.9c-9.47-1.8-16.34-10.09-16.34-19.72v-24.11Zm123.34-32.02l28.61-77.18c3.85-10.42,2.58-21.96-2.97-31.22l50.55,29.18,15.27,89.63-55.38,19.39c-9.09,3.19-19.19-.56-24.02-8.9l-12.06-20.89h0s0,0,0,0Zm90.82-89.4l-2.85-16.73-10.97-64.39h0c-1.87-10.95-8.74-20.3-18.17-25.56h58.35l58.04,69.97-38.27,44.49c-6.29,7.31-16.91,9.11-25.26,4.28l-20.87-12.06Zm-18.61-186.18c-.88-1.06-1.8-2.05-2.78-2.99-.72-.69-1.48-1.3-2.25-1.92-.27-.22-.53-.48-.81-.69-.95-.73-1.95-1.39-2.96-2.01-.11-.07-.22-.16-.33-.23-1.06-.64-2.15-1.21-3.27-1.73-.08-.04-.16-.09-.24-.12-1.07-.5-2.17-.92-3.28-1.31-.14-.05-.27-.11-.4-.16-1.01-.34-2.04-.61-3.08-.86-.25-.06-.5-.15-.76-.2-.89-.19-1.8-.32-2.7-.44-.42-.06-.83-.15-1.26-.19-.74-.08-1.48-.09-2.22-.12-.54-.02-1.08-.09-1.62-.09-.14,0-.28,0-.42,0l50.5-29.14,85.15,31.55-10.89,57.66c-1.78,9.47-10.07,16.35-19.72,16.35h-24.12l-52.54-63.36Zm-44.55-285.69c5.1-4.24,11.69-5.65,18.08-3.88,6.4,1.77,11.33,6.39,13.53,12.65l38.49,110.03-73.69,12.57,5.34-9.24c8.7-15.05,5.45-34.21-7.73-45.55l-42.39-36.48,48.37-40.1Zm-193.54-28.02c2.31-6.22,7.31-10.74,13.74-12.4,6.42-1.65,12.99-.13,18.01,4.2l88.43,76.09-57.6,47.75v-10.75c.03-17.38-12.37-32.35-29.47-35.6l-54.95-10.39,21.84-58.9Zm-181.64,72.5c-1.11-6.54.97-12.96,5.71-17.61,4.74-4.65,11.18-6.61,17.7-5.38l114.62,21.68-26.01,70.14-5.37-9.29c-8.69-15.07-26.91-21.84-43.32-16.08l-52.8,18.48-10.54-61.93Zm-121.02,153.6c-4.24-5.1-5.65-11.7-3.88-18.08,1.77-6.4,6.39-11.33,12.65-13.53l110.09-38.52,12.55,73.73h0s0,0,0,0l-9.29-5.37c-15.05-8.68-34.2-5.42-45.55,7.74l-36.48,42.4-40.09-48.36Zm-28.02,193.56c-6.22-2.31-10.74-7.32-12.4-13.75-1.66-6.43-.13-13,4.19-18.03l76.09-88.43,47.74,57.58h-10.74c-17.4,0-32.36,12.41-35.57,29.49l-10.4,54.97-58.92-21.83Zm72.54,181.61c-6.57,1.11-12.98-.97-17.63-5.72-4.65-4.73-6.61-11.19-5.37-17.7l21.68-114.61,70.15,25.99-9.3,5.37c-15.07,8.69-21.83,26.91-16.08,43.32l18.48,52.79-61.92,10.55Zm153.61,121.02c-5.11,4.23-11.7,5.64-18.09,3.86-6.4-1.78-11.33-6.39-13.53-12.66l-38.54-110.08,73.74-12.56-5.36,9.29c-8.71,15.07-5.46,34.23,7.73,45.55l42.41,36.49-48.37,40.11Zm193.53,27.99c-2.3,6.21-7.29,10.73-13.71,12.39-6.42,1.65-13.01.13-18.04-4.2l-88.42-76.06,57.57-47.74h0s0,0,0,0v10.74c0,17.37,12.39,32.33,29.47,35.57l54.96,10.39-21.83,58.91Zm181.62-72.55c1.12,6.55-.96,12.97-5.7,17.63-4.73,4.65-11.18,6.61-17.7,5.38l-114.63-21.67,25.99-70.14,5.37,9.31c6.62,11.45,18.74,18.09,31.38,18.09,3.98,0,8.01-.66,11.94-2.04l52.79-18.49,10.55,61.93Zm121.02-153.64c4.23,5.11,5.64,11.71,3.86,18.11-1.78,6.4-6.38,11.32-12.63,13.51l-110.1,38.55-12.56-73.74,9.28,5.36c5.66,3.27,11.9,4.86,18.09,4.86,10.27,0,20.39-4.36,27.47-12.59l36.48-42.42,40.11,48.35Zm36.19-161.78l-76.07,88.43-47.75-57.57h10.74c17.4,0,32.35-12.41,35.57-29.49l10.39-54.96,58.92,21.83c6.22,2.3,10.74,7.3,12.4,13.73,1.66,6.42.14,13-4.19,18.03Z"/>
    </g>
  </g>
</svg>